<svg viewBox="0 0 200 100" xmlns="http://www.w3.org/2000/svg">
  <defs>
    <linearGradient id="leafGradient" x1="0%" y1="0%" x2="0%" y2="100%">
      <stop offset="0%" style="stop-color:#9ACD32;stop-opacity:1" />
      <stop offset="50%" style="stop-color:#7CB342;stop-opacity:1" />
      <stop offset="100%" style="stop-color:#558B2F;stop-opacity:1" />
    </linearGradient>
  </defs>
  
  <!-- Chiếc lá chính -->
  <path d="M 40 50 Q 50 30, 70 25 Q 90 23, 110 28 Q 130 33, 150 45 Q 165 55, 170 65 Q 172 70, 168 72 Q 160 75, 145 70 Q 130 65, 115 62 Q 100 60, 85 60 Q 70 60, 55 62 Q 45 64, 40 50 Z" 
        fill="url(#leafGradient)" 
        stroke="#558B2F" 
        stroke-width="1"/>
  
  <!-- Cuống lá bên trái -->
  <path d="M 40 50 Q 35 48, 30 45 L 25 42" 
        fill="none" 
        stroke="#7CB342" 
        stroke-width="3" 
        stroke-linecap="round"/>
  
  <!-- Đường gân lá -->
  <path d="M 45 50 Q 70 52, 95 55 Q 120 58, 145 65" 
        fill="none" 
        stroke="#9ACD32" 
        stroke-width="1.5" 
        opacity="0.6"/>
  
  <!-- Vân lá phụ -->
  <path d="M 60 48 Q 65 52, 68 55" 
        fill="none" 
        stroke="#9ACD32" 
        stroke-width="0.8" 
        opacity="0.4"/>
  
  <path d="M 80 50 Q 85 54, 88 58" 
        fill="none" 
        stroke="#9ACD32" 
        stroke-width="0.8" 
        opacity="0.4"/>
  
  <path d="M 100 52 Q 105 57, 108 61" 
        fill="none" 
        stroke="#9ACD32" 
        stroke-width="0.8" 
        opacity="0.4"/>
  
  <path d="M 120 56 Q 125 61, 130 65" 
        fill="none" 
        stroke="#9ACD32" 
        stroke-width="0.8" 
        opacity="0.4"/>
</svg>